<?xml version="1.0" encoding="utf-8"?>
<!-- Generator: Adobe Illustrator 19.1.0, SVG Export Plug-In . SVG Version: 6.00 Build 0)  -->
<svg version="1.1" id="Layer_1" xmlns="http://www.w3.org/2000/svg" xmlns:xlink="http://www.w3.org/1999/xlink" x="0px" y="0px"
	 viewBox="-287 379 36 36" style="enable-background:new -287 379 36 36;" xml:space="preserve">
<style type="text/css">
	.st0{fill:none;}
	.st1{fill:#FFFFFF;stroke:#FFFFFF;stroke-miterlimit:10;}
</style>
<path class="st0" d="M-287,379h36v36h-36V379z"/>
<path class="st1" d="M-268.3,384.3v25.5c0,0.8,0.7,1.5,1.5,1.5h9c0.8,0,1.5-0.7,1.5-1.5v-25.5c0-0.8-0.7-1.5-1.5-1.5h-9
	C-267.6,382.8-268.3,383.4-268.3,384.3z M-283.3,384.3v25.5c0,0.8,0.7,1.5,1.5,1.5h9c0.8,0,1.5-0.7,1.5-1.5v-25.5
	c0-0.8-0.7-1.5-1.5-1.5h-9C-282.6,382.8-283.3,383.4-283.3,384.3z"/>
</svg>
