<?xml version="1.0" encoding="utf-8"?>
<!-- Generator: Adobe Illustrator 19.1.0, SVG Export Plug-In . SVG Version: 6.00 Build 0)  -->
<svg version="1.1" xmlns="http://www.w3.org/2000/svg" xmlns:xlink="http://www.w3.org/1999/xlink" x="0px" y="0px"
	 viewBox="0 0 3820 980" style="enable-background:new 0 0 3820 1140;" xml:space="preserve">
<style type="text/css">
	.st0{fill:#1A1A1A;}
	.st1{fill:#79C0F2;}
	.st2{fill:#495E72;}
	.st3{fill:#F2F6F7;}
	.st4{fill:#79C0F2;stroke:#FFFFFF;stroke-width:4;stroke-miterlimit:10;}
	.st5{fill:#FFFFFF;}
	.st6{fill:#3C5A99;}
	.st7{fill:#6AB6EA;}
	.st8{fill:#434C59;}
	.st9{fill:#002F4B;}
	.st10{fill:#79C0F2;stroke:#FFFFFF;stroke-width:5;stroke-miterlimit:10;}
	.st11{fill:#79C0F2;stroke:#FFFFFF;stroke-width:3;stroke-miterlimit:10;}
	.st12{fill:none;stroke:#FFFFFF;stroke-width:4;stroke-linecap:round;stroke-miterlimit:10;}
</style>
<g id="Layer_1">
	<g>
		<path class="st2" d="M2654.1,243.3c0-37.6-30.5-68.2-68.1-68.2c-37.6,0-68.1,30.5-68.1,68.2c0,37.6,30.5,68.1,68.1,68.1
			C2623.6,311.5,2654.1,280.9,2654.1,243.3z"/>
		<path class="st2" d="M1036.6,386.9c-23.6,0-42.6,19.1-42.6,42.6c0,0.1,0,0.5,0,0.5h0l-0.2,239H857.4c-52.2,0-95.4-57.3-95.4-109.5
			V430h-0.5c0,0,0-0.4,0-0.5c0-23.4-19-42.5-42.5-42.5c-23.5,0-42.4,19.1-42.4,42.6c0,0.1,0,0.4,0,0.4h0.4v129.5
			C677,659.6,758.2,757,857.4,757h136.4l0.2,14.7c0,52.2-43.6,106.4-95.8,106.4L714,878.5v0.1c-22,0.9-40.5,19.6-40.5,42.6
			c0,22.9,18.5,41.7,40.5,42.5v0.1l184.6-0.5c100.1,0,181.4-91.6,181.4-191.8V430h-0.8c0,0,0-0.4,0-0.5
			C1079.2,406.1,1060.1,386.9,1036.6,386.9z"/>
		<path class="st2" d="M2379.9,387.9c-23.1,0-41.8,18.1-42.6,41.1h0.6v352.3c0,52.2-43.3,95.7-95.5,95.7h-25.6
			c-52.2,0-95.9-43.5-95.9-95.7V429h0c-0.7-23-19.5-41.1-42.6-41.1c-23.1,0-41.8,18.1-42.6,41.1h0.2v352.3c0,52.2-40.8,95.7-94,95.7
			h-26.6c-52.2,0-95.3-43.5-95.3-95.7V575h-0.7c-0.4-98-56.5-174.1-152.4-177.4c-1.3-0.1-2.7-0.3-4.1-0.3
			c-23.6,0-42.6,18.9-42.6,42.3c0,23.4,19.1,42.3,42.6,42.3c0,0,0.1,0,0.1,0v0.1c52,0,70.9,40.9,71.2,92.9h0.8v206.3
			c0,100.1,80.2,181.7,180.3,181.7h25.6c53.3,0,107.6-33.1,136.4-82.1c28.8,49,83.1,82.1,136.4,82.1h28.8
			c100.2,0,180.5-82.6,180.5-181.7V429h-0.5C2421.8,406,2403,387.9,2379.9,387.9z"/>
		<path class="st2" d="M2716,878.9L2716,878.9c-59,0-87-47.1-87-100V426h-0.5c-1.8-21-20.1-39-42.5-39c-22.4,0-40.7,18-42.5,39h0.5
			v352.9c0,101.5,53.2,185.1,167.8,185.1h2.4c23.6,0,42.6-19.1,42.6-42.6C2756.9,898.6,2739,879.8,2716,878.9z"/>
		<path class="st2" d="M3564,878.5v0.5h-160.2c-52.2,0-95.8-44.2-95.8-96.4V757h136.3c99.1,0,181.1-79.8,181.1-179.9
			c0-100.2-81-181.1-181.1-181.1h-40.5c-100.2,0-180.8,80.8-180.8,181v205.7c0,100.2,80.6,181.4,180.8,181.4H3564v-0.2
			c24-0.2,42.3-19.2,42.3-42.6C3606.3,897.7,3588,878.7,3564,878.5z M3308,575.6c0-52.2,43.6-95.6,95.8-95.6h40.5
			c52.2,0,95.9,43.8,95.9,96c0,52.3-43.7,95-95.9,95H3308V575.6z"/>
		<path class="st2" d="M3134,394.5c-0.4,0-1,0-1,0v0.5h-123c-100.2,0-181,80.5-181,180.6V923h-0.1c1,23,19.6,40.7,42.6,40.7
			c22.9,0,41.6-17.7,42.6-40.7h1V575.6c0-52.2,42.8-95.6,95-95.6h123v-0.6c0,0,0.6,0,1,0c23.5,0,42.6-19,42.6-42.5
			C3176.6,413.5,3157.5,394.5,3134,394.5z"/>
		<path class="st2" d="M575,880.8v0.2H371.9c-51.2,0-93.9-43-93.9-94.2v-86.7c0-51.1,41.7-94.1,92.8-94.1H538v0
			c23-0.2,41.3-18.8,41.3-41.7c0-22.9-18.3-41.5-41.3-41.7v0.4H370.8c-51.1,0-92.8-43.2-92.8-94.4v-49.1c0-51.2,42.7-93.5,93.9-93.5
			H566c2.4,0,4.8,0.4,7.3,0.4c23.3,0,42.5-19,42.5-42.2c0-22.9-18.8-41.7-40.8-42.2v0H371.9C273.8,202,195,281.3,195,379.5v50.1
			c0,52.2,32.4,105.5,80.4,133.7C227.4,591.5,195,644.8,195,697v89.8C195,885,273.8,965,371.9,965H575v-0.7
			c23-0.3,41.5-18.9,41.5-41.8C616.5,899.7,598,881.2,575,880.8z"/>
		<path class="st2" d="M1411.7,756c99.1,0,181.2-79.8,181.2-180c0-100.2-81-181-181.2-181h-40.5C1271,395,1190,475.5,1190,575.6V670
			V754v27.4c0,100.1,81,181.7,181.2,181.7H1514v-0.6c22-1,40.7-19.7,40.7-42.6c0-22.9-18.7-41.6-40.7-42.6V877h-142.8
			c-52.2,0-95.2-43.5-95.2-95.7V756H1411.7z M1276,575.6c0-52.2,43-95.6,95.2-95.6h40.5c52.2,0,95.9,43.8,95.9,96
			c0,52.3-43.7,95-95.9,95H1276V575.6z"/>
	</g>
</g>
<g id="Layer_2">
</g>
</svg>