<?xml version="1.0" encoding="utf-8"?>
<!-- Generator: Adobe Illustrator 19.2.1, SVG Export Plug-In . SVG Version: 6.00 Build 0)  -->
<svg version="1.1" xmlns="http://www.w3.org/2000/svg" xmlns:xlink="http://www.w3.org/1999/xlink" x="0px" y="0px"
	 viewBox="0 0 115 115" style="enable-background:new 0 0 115 115;" xml:space="preserve">
<style type="text/css">
	.st0{fill:#1B2731;}
	.st1{opacity:0.5;}
	.st2{fill:#434C5A;}
	.st3{opacity:0.5;fill:none;stroke:#434C5A;stroke-width:0.125;stroke-linecap:round;stroke-linejoin:round;stroke-miterlimit:10;}
	
		.st4{opacity:0.5;fill:none;stroke:#434C5A;stroke-width:0.125;stroke-linecap:round;stroke-linejoin:round;stroke-miterlimit:10;stroke-dasharray:1.1684,4.6736;}
	.st5{fill:#FFFFFF;}
	.st6{fill:none;stroke:#E6EDF2;stroke-width:6;stroke-linecap:round;stroke-miterlimit:10;}
	.st7{fill:#E6EDF2;}
	.st8{fill:none;stroke:#000000;stroke-width:6;stroke-linecap:round;stroke-miterlimit:10;}
	.st9{fill:none;stroke:#E6EDF2;stroke-width:6;stroke-miterlimit:10;}
	.st10{fill:none;stroke:#E6EDF2;stroke-width:6;stroke-linejoin:round;stroke-miterlimit:10;}
	.st11{fill:none;stroke:#E6EDF2;stroke-width:6;stroke-linecap:round;stroke-linejoin:round;stroke-miterlimit:10;}
	.st12{fill:none;stroke:#E6EDF2;stroke-width:7;stroke-linecap:round;stroke-miterlimit:10;}
	.st13{fill:#E6EDF2;stroke:#E6EDF2;stroke-width:2;stroke-miterlimit:10;}
	.st14{fill:none;stroke:#E6EDF2;stroke-width:6;stroke-linecap:round;stroke-linejoin:bevel;stroke-miterlimit:10;}
	.st15{fill:none;stroke:#E6EDF2;stroke-width:6;stroke-linecap:round;stroke-linejoin:round;}
	.st16{fill:#E6ECF1;}
	.st17{fill:none;stroke:#E6EDF2;stroke-width:8;stroke-linecap:round;stroke-miterlimit:10;}
	.st18{display:none;}
	.st19{display:inline;fill:#E6EDF2;}
	.st20{fill:none;stroke:#E6EDF2;stroke-miterlimit:10;}
	.st21{fill:#A3B3BF;}
	.st22{fill:none;stroke:#A3B3BF;stroke-miterlimit:10;}
	.st23{fill:#E6EDF2;stroke:#E6EDF2;stroke-width:6;stroke-linecap:round;stroke-miterlimit:10;}
</style>
<g id="BG">
</g>
<g id="Grid">
</g>
<g id="Icons">
	<path d="M98.4,79H78.2c-1.3-6-6.9-11-13.5-11s-12.2,5-13.5,11H18.4c-1.7,0-3,1.3-3,3s1.3,3,3,3h32.7c1.4,6,6.9,10.6,13.4,10.6
		c6.5,0,12-4.6,13.4-10.6h20.4c1.7,0,3-1.3,3-3S100.1,79,98.4,79z M64.6,89.5c-4.3,0-7.8-3.5-7.8-7.8c0-4.3,3.5-7.8,7.8-7.8
		s7.8,3.5,7.8,7.8C72.4,86,68.9,89.5,64.6,89.5z"/>
	<path d="M98.4,54H50.6c-1.3-6-6.9-10.9-13.5-10.9c-6.6,0-12.2,4.9-13.5,10.9h-5.1c-1.7,0-3,1.3-3,3s1.3,3,3,3h5.2
		c1.4,6,6.9,10.8,13.5,10.8S49.1,66,50.5,60h47.9c1.7,0,3-1.3,3-3S100.1,54,98.4,54z M37.1,64.8c-4.3,0-7.8-3.5-7.8-7.8
		c0-4.3,3.5-7.8,7.8-7.8s7.8,3.5,7.8,7.8C44.9,61.3,41.4,64.8,37.1,64.8z"/>
	<path d="M98.4,29h-5.1c-1.4-6-6.9-10.8-13.5-10.8c-6.6,0-12.1,4.8-13.5,10.8H18.4c-1.7,0-3,1.3-3,3s1.3,3,3,3h47.9
		c1.4,6,6.9,10.8,13.5,10.8c6.6,0,12.1-4.8,13.5-10.8h5.1c1.7,0,3-1.3,3-3S100.1,29,98.4,29z M79.8,40.1c-4.3,0-7.8-3.5-7.8-7.8
		c0-4.3,3.5-7.8,7.8-7.8s7.8,3.5,7.8,7.8C87.6,36.6,84.1,40.1,79.8,40.1z"/>
</g>
<g id="Type">
</g>
</svg>
