<?xml version="1.0" encoding="utf-8"?>
<!-- Generator: Adobe Illustrator 19.2.1, SVG Export Plug-In . SVG Version: 6.00 Build 0)  -->
<svg version="1.1" xmlns="http://www.w3.org/2000/svg" xmlns:xlink="http://www.w3.org/1999/xlink" x="0px" y="0px"
	 viewBox="0 0 115 115" style="enable-background:new 0 0 115 115;" xml:space="preserve">
<style type="text/css">
	.st0{display:none;}
	.st1{display:inline;fill:#1B2731;}
	.st2{display:inline;}
	.st3{opacity:0.5;}
	.st4{fill:#434C5A;}
	.st5{opacity:0.5;fill:none;stroke:#434C5A;stroke-width:0.125;stroke-linecap:round;stroke-linejoin:round;stroke-miterlimit:10;}
	
		.st6{opacity:0.5;fill:none;stroke:#434C5A;stroke-width:0.125;stroke-linecap:round;stroke-linejoin:round;stroke-miterlimit:10;stroke-dasharray:1.1684,4.6736;}
	.st7{fill:#FFFFFF;}
	.st8{fill:none;stroke:#1A1A1A;stroke-width:6;stroke-linecap:round;stroke-miterlimit:10;}
	.st9{fill:#1A1A1A;}
	.st10{fill:none;stroke:#1A1A1A;stroke-width:6;stroke-miterlimit:10;}
	.st11{fill:none;stroke:#1A1A1A;stroke-width:6;stroke-linejoin:round;stroke-miterlimit:10;}
	.st12{fill:none;stroke:#1A1A1A;stroke-width:6;stroke-linecap:round;stroke-linejoin:round;stroke-miterlimit:10;}
	
		.st13{fill:none;stroke:#1A1A1A;stroke-width:7;stroke-linecap:round;stroke-linejoin:round;stroke-miterlimit:10;stroke-dasharray:0,10;}
	.st14{fill:none;stroke:#1A1A1A;stroke-width:7;stroke-linecap:round;stroke-linejoin:round;}
	.st15{fill:none;stroke:#1A1A1A;stroke-width:6;stroke-linecap:round;stroke-linejoin:bevel;stroke-miterlimit:10;}
	.st16{fill:none;stroke:#1A1A1A;stroke-width:6;stroke-linecap:round;stroke-linejoin:round;}
	.st17{fill:none;stroke:#1A1A1A;stroke-width:8;stroke-linecap:round;stroke-miterlimit:10;}
	.st18{display:inline;fill:#E6EDF2;}
	.st19{fill:#1A1A1A;stroke:#1A1A1A;stroke-miterlimit:10;}
	.st20{fill:#FAFAFA;stroke:#1A1A1A;stroke-width:6;stroke-linecap:round;stroke-miterlimit:10;}
	.st21{fill:#1A1A1A;stroke:#1A1A1A;stroke-width:2;stroke-miterlimit:10;}
	.st22{fill:#A3B3BF;}
	.st23{fill:none;stroke:#A3B3BF;stroke-miterlimit:10;}
	.st24{fill:none;stroke:#E6EDF2;stroke-width:6;stroke-miterlimit:10;}
	.st25{fill:none;stroke:#E6EDF2;stroke-width:6;stroke-linecap:round;stroke-miterlimit:10;}
	.st26{fill:#E6EDF2;}
	.st27{fill:none;stroke:#E6EDF2;stroke-width:7;stroke-linecap:round;stroke-miterlimit:10;}
</style>
<g id="BG" class="st0">
	<rect x="-1544.2" y="-1255.3" class="st1" width="2074.5" height="2078.6"/>
</g>
<g id="Grid" class="st0">
	<g class="st2">
		<g class="st3">
			<path class="st4" d="M112.4,3v109H3.5V3H112.4 M112.5,2.9H3.4v109.2h109.1V2.9L112.5,2.9z"/>
		</g>
		<g class="st3">
			<path class="st4" d="M58,23.5c18.7,0,34,15.3,34,34s-15.2,34-34,34s-34-15.3-34-34S39.2,23.5,58,23.5 M58,23.4
				c-18.8,0-34.1,15.3-34.1,34.1S39.1,91.6,58,91.6c18.8,0,34.1-15.3,34.1-34.1S76.8,23.4,58,23.4L58,23.4z"/>
		</g>
		<line class="st5" x1="112.5" y1="57.5" x2="3.4" y2="57.5"/>
		<line class="st5" x1="58" y1="2.9" x2="58" y2="112.1"/>
		<line class="st6" x1="33.9" y1="2.9" x2="33.9" y2="112.1"/>
		<line class="st6" x1="81.8" y1="2.9" x2="81.8" y2="112.1"/>
		<g class="st3">
			<path class="st4" d="M58,3c30,0,54.4,24.4,54.4,54.5S88,112,58,112c-30,0-54.4-24.4-54.4-54.5S27.9,3,58,3 M58,2.9
				C27.8,2.9,3.4,27.3,3.4,57.5s24.4,54.6,54.6,54.6c30.1,0,54.6-24.5,54.6-54.6S88.1,2.9,58,2.9L58,2.9z"/>
		</g>
		<g class="st3">
			<path class="st4" d="M96.3,19.1v76.9H19.6V19.1H96.3 M96.5,18.9h-77v77.1h77V18.9L96.5,18.9z"/>
		</g>
		<line class="st5" x1="96.6" y1="18.8" x2="19.5" y2="96.1"/>
		<line class="st5" x1="19.4" y1="18.7" x2="96.5" y2="96"/>
		<g class="st3">
			<ellipse class="st7" cx="58" cy="57.5" rx="8.5" ry="8.5"/>
			<path class="st4" d="M58,49.1c4.6,0,8.4,3.8,8.4,8.4s-3.8,8.4-8.4,8.4c-4.6,0-8.4-3.8-8.4-8.4S53.3,49.1,58,49.1 M58,49
				c-4.7,0-8.5,3.8-8.5,8.5S53.2,66,58,66c4.7,0,8.5-3.8,8.5-8.5S62.7,49,58,49L58,49z"/>
		</g>
		<line class="st6" x1="3.3" y1="81.5" x2="112.4" y2="81.5"/>
		<line class="st6" x1="3.3" y1="33.5" x2="112.4" y2="33.5"/>
	</g>
</g>
<g id="Icons">
	<g>
		<path class="st9" d="M70.9,36c11.9,0,21.5,9.6,21.5,21.5c0,11.8-9.6,21.5-21.5,21.5s-21.5-9.6-21.5-21.5
			C49.4,45.7,59.1,36,70.9,36 M70.9,30c-15.2,0-27.5,12.3-27.5,27.5C43.4,72.7,55.7,85,70.9,85s27.5-12.3,27.5-27.5
			C98.4,42.3,86.1,30,70.9,30L70.9,30z"/>
	</g>
	<g>
		<path class="st9" d="M45.2,36c11.9,0,21.5,9.6,21.5,21.5c0,11.8-9.6,21.5-21.5,21.5s-21.5-9.6-21.5-21.5
			C23.7,45.7,33.4,36,45.2,36 M45.2,30C30,30,17.7,42.3,17.7,57.5C17.7,72.7,30,85,45.2,85c15.2,0,27.5-12.3,27.5-27.5
			C72.7,42.3,60.4,30,45.2,30L45.2,30z"/>
	</g>
	<line class="st8" x1="67.9" y1="66.7" x2="93.5" y2="66.7"/>
	<line class="st8" x1="68" y1="48.6" x2="93.6" y2="48.6"/>
</g>
<g id="Type">
</g>
<g id="Points_Evolution" class="st0">
</g>
</svg>
