<?xml version="1.0" encoding="UTF-8" standalone="no"?>
<svg width="125px" height="125px" viewBox="0 0 125 125" version="1.1" xmlns="http://www.w3.org/2000/svg" xmlns:xlink="http://www.w3.org/1999/xlink">
    <!-- Generator: Sketch 40.1 (33804) - http://www.bohemiancoding.com/sketch -->
    <title>Export-Light</title>
    <desc>Created with Sketch.</desc>
    <defs></defs>
    <g id="Icons" stroke="none" stroke-width="1" fill="none" fill-rule="evenodd" stroke-linecap="round" stroke-linejoin="round">
        <g id="Export-Light" stroke-width="6" stroke="#000000">
            <g id="perspective" transform="translate(18.000000, 14.000000)">
                <g id="Icons">
                    <path d="M72.79,68.13 C72.6862242,69.954838 71.7210386,71.6216393 70.19,72.62 L48.11,85.31 C46.4741517,86.1321292 44.5458483,86.1321292 42.91,85.31 L20.84,72.62 C19.3089614,71.6216393 18.3437758,69.954838 18.24,68.13 L18.24,42.78 C18.3437758,40.955162 19.3089614,39.2883607 20.84,38.29 L42.91,25.6 C44.5458483,24.7778708 46.4741517,24.7778708 48.11,25.6 L70.19,38.28 C71.7210386,39.2783607 72.6862242,40.945162 72.79,42.77 L72.79,68.13 Z" id="Shape"></path>
                    <path d="M18.86,40 L42.86,53.82 C44.4958483,54.6421292 46.4241517,54.6421292 48.06,53.82 L72.16,40" id="Shape"></path>
                    <path d="M9.46,77.36 L0.789141699,82.3415877" id="Shape"></path>
                    <path d="M81.29,77.36 L89.9608583,82.3415877" id="Shape"></path>
                    <path d="M45,54.83 L45,86.18" id="Shape"></path>
                    <path d="M45,0.777391387 L45,10.7773914" id="Shape"></path>
                    <path id="Shape"></path>
                    <path id="Shape"></path>
                </g>
            </g>
        </g>
    </g>
</svg>