<?xml version="1.0" encoding="utf-8"?>
<!-- Generator: Adobe Illustrator 19.0.1, SVG Export Plug-In . SVG Version: 6.00 Build 0)  -->
<svg version="1.1" id="Layer_1" xmlns="http://www.w3.org/2000/svg" xmlns:xlink="http://www.w3.org/1999/xlink" x="0px" y="0px"
	 viewBox="0 0 462 451.7" style="enable-background:new 0 0 462 451.7;" xml:space="preserve">
<style type="text/css">
	.st0{fill:#1A1A1A;}
	.st1{fill:#79C0F2;}
	.st2{fill:#434C59;}
	.st3{fill:#F2F6F7;}
	.st4{fill:#FFFFFF;}
	.st5{fill:#3C5A99;}
	.st6{fill:#6AB6EA;}
	.st7{fill:#002F4B;}
</style>
<g>
	<g>
		<path class="st1" d="M350.1,152.6l-35.8-35.8c0.3-1.6,0.5-3.2,0.5-4.9c0-12.9-10.4-23.3-23.3-23.3c-12.9,0-23.3,10.4-23.3,23.3
			c0,12.9,10.4,23.3,23.3,23.3c1.8,0,3.5-0.2,5.1-0.6l35.7,35.7c10.9,10.9,10.9,29,0,39.9L319,223.7c-10.9,10.9-29,10.9-39.8,0.1
			l-42-42l0,0c-2.1-2.1-5.3-3.5-8.7-3.5c-6.9,0-12.8,5.7-12.8,12.6c0,3.4,1.4,6.6,3.4,8.9l0,0l42.2,41.9
			c10.9,10.9,10.8,28.8-0.1,39.7l-12.5,12.5c-10.9,10.9-29,10.9-39.9,0l-39-39c-2.3-2.3-5.5-3.8-9-3.8c-6.9,0-12.5,5.6-12.5,12.5
			c0,3.5,1.4,6.6,3.7,8.9l0,0l39.3,39.3c20.8,20.8,54.7,21,75.5,0.1l12.8-12.8c11.1-11.1,15.4-29.4,11.2-45.6
			c16.2,4.2,34.3-0.3,45.4-11.4l14.1-14.1C371,207.2,371,173.4,350.1,152.6z"/>
	</g>
	<g>
		<path class="st1" d="M220.7,271.6c2.1,1.8,5.5,3.2,9,3.2c6.9,0,12.6-5.9,12.5-12.9c0-3.6-1.5-6.9-3.9-9.2l-38.6-38.7
			c-10.9-10.9-10.6-28.9,0.2-39.7l12.5-12.6c10.9-10.9,29-10.9,39.9,0l38.5,38.5l0,0c2.3,2.4,5.5,3.8,9,3.8
			c6.9,0,12.6-5.6,12.6-12.5c0-3.5-1.7-6.9-3.8-9l0,0l-38.5-38.5c-20.8-20.8-54.5-20.8-75.4,0L182,156.7
			c-11.1,11.1-15.5,29.3-11.3,45.4c-16.2-4.2-34.3,0.2-45.4,11.3l-14.1,14.1c-20.8,20.8-20.8,54.5,0,75.3l34.6,34.6
			c-0.4,1.7-0.6,3.4-0.6,5.2c0,12.9,10.4,23.3,23.3,23.3c12.9,0,23.3-10.4,23.3-23.3c0-12.9-10.4-23.3-23.3-23.3
			c-1.7,0-3.3,0.2-4.9,0.5l-34.7-34.7c-10.9-10.9-10.9-29,0-39.9l13.4-13.4c10.9-10.9,28.8-10.4,39.7,0.4"/>
	</g>
</g>
</svg>
