<?xml version="1.0" encoding="utf-8"?>
<!-- Generator: Adobe Illustrator 19.2.1, SVG Export Plug-In . SVG Version: 6.00 Build 0)  -->
<svg version="1.1" xmlns="http://www.w3.org/2000/svg" xmlns:xlink="http://www.w3.org/1999/xlink" x="0px" y="0px"
	 viewBox="0 0 92.7 82.7" style="enable-background:new 0 0 92.7 82.7;" xml:space="preserve">
<style type="text/css">
	.st0{fill:#191919;}
	.st1{fill:none;}
	.st2{fill:none;stroke:#191919;stroke-width:0.25;stroke-miterlimit:10;}
	.st3{fill:#F58025;}
	.st4{fill:#191919;stroke:#000000;stroke-width:0.25;stroke-miterlimit:10;}
	.st5{fill:#191919;stroke:#191919;stroke-width:0.25;stroke-miterlimit:10;}
	.st6{fill:#FFFFFF;}
	.st7{fill:#231F20;}
	.st8{display:none;}
	.st9{display:inline;fill:#191919;}
	.st10{display:inline;}
	.st11{display:inline;opacity:0.1;}
	.st12{display:inline;opacity:0.1;fill:none;stroke:#191919;stroke-miterlimit:10;}
</style>
<g id="Layer_1">
</g>
<g id="logos">
	<g>
		<path d="M70.5,26.2L63.3,19c0.1-0.3,0.1-0.6,0.1-1c0-2.6-2.1-4.7-4.7-4.7c-2.6,0-4.7,2.1-4.7,4.7s2.1,4.7,4.7,4.7
			c0.4,0,0.7,0,1-0.1l7.2,7.2c2.2,2.2,2.2,5.9,0,8.1l-2.7,2.7c-2.2,2.2-5.9,2.2-8.1,0l-8.5-8.5l0,0c-0.4-0.4-1.1-0.7-1.8-0.7
			c-1.4,0-2.6,1.2-2.6,2.6c0,0.7,0.3,1.3,0.7,1.8l0,0l8.5,8.5c2.2,2.2,2.2,5.8,0,8L50,54.8c-2.2,2.2-5.9,2.2-8.1,0L34,46.9
			c-0.5-0.5-1.1-0.8-1.8-0.8c-1.4,0-2.5,1.1-2.5,2.5c0,0.7,0.3,1.3,0.7,1.8l0,0l8,8c4.2,4.2,11.1,4.3,15.3,0l2.6-2.6
			c2.2-2.2,3.1-6,2.3-9.2c3.3,0.9,6.9-0.1,9.2-2.3l2.9-2.9C74.7,37.3,74.7,30.4,70.5,26.2z"/>
		<path d="M44.3,50.3c0.4,0.4,1.1,0.6,1.8,0.6c1.4,0,2.6-1.2,2.5-2.6c0-0.7-0.3-1.4-0.8-1.9l-7.8-7.8c-2.2-2.2-2.1-5.9,0-8l2.5-2.6
			c2.2-2.2,5.9-2.2,8.1,0l7.8,7.8l0,0c0.5,0.5,1.1,0.8,1.8,0.8c1.4,0,2.6-1.1,2.6-2.5c0-0.7-0.3-1.4-0.8-1.8l0,0l-7.8-7.8
			c-4.2-4.2-11-4.2-15.3,0L36.5,27c-2.2,2.2-3.1,5.9-2.3,9.2c-3.3-0.9-6.9,0-9.2,2.3l-2.9,2.9c-4.2,4.2-4.2,11,0,15.3l7,7
			C29.1,64,29,64.3,29,64.7c0,2.6,2.1,4.7,4.7,4.7c2.6,0,4.7-2.1,4.7-4.7c0-2.6-2.1-4.7-4.7-4.7c-0.3,0-0.7,0-1,0.1l-7-7
			c-2.2-2.2-2.2-5.9,0-8.1l2.7-2.7c2.2-2.2,5.8-2.1,8,0.1"/>
	</g>
</g>
<g id="logo-boxes" class="st8">
</g>
<g id="Text">
</g>
<g id="border" class="st8">
</g>
<g id="Layer_6">
</g>
</svg>
